<svg xmlns="http://www.w3.org/2000/svg" version="1.1" xmlns:xlink="http://www.w3.org/1999/xlink" width="512" height="512" x="0" y="0" viewBox="0 0 512 512" style="enable-background:new 0 0 512 512" xml:space="preserve" class=""><g><circle cx="256" cy="256" r="256" style="" fill="#ff0037" data-original="#ff0037" class=""></circle><path d="M512 256a257.75 257.75 0 0 0-3.485-42.218l-118.15-118.15-289.608 124.09v192.24l92.208 92.208C213.131 509.277 234.247 512 256 512c141.385 0 256-114.615 256-256z" style="" fill="#d30f0f" data-original="#d30f0f" class=""></path><path d="M100.76 219.72h310.48v192.24H100.76z" style="" fill="#414952" data-original="#414952"></path><path d="M255.76 219.72h155.48v192.24H255.76z" style="" fill="#23272b" data-original="#23272b" class=""></path><path d="M100.76 219.72h310.48v53.57H100.76z" style="" fill="#ffffff" data-original="#ffffff" class=""></path><path d="M255.76 219.72h155.48v53.57H255.76z" style="" fill="#f7f7f7" data-original="#f7f7f7"></path><path d="M259 273.295h-28.667L253 219.722h28.667z" style="" fill="#707789" data-original="#707789"></path><path d="M281.667 219.722h-25.905v53.573H259z" style="" fill="#636978" data-original="#636978"></path><path d="M194.212 273.295h-28.666l22.666-53.573h28.667zM129.424 273.295h-28.666l22.666-53.573h28.667z" style="" fill="#707789" data-original="#707789"></path><path d="M323.788 273.295h-28.667l22.667-53.573h28.666zM388.576 273.295h-28.667l22.667-53.573h28.666z" style="" fill="#636978" data-original="#636978"></path><path d="M90.321 130.899h310.491v53.572H90.321z" style="" transform="rotate(-13.403 245.558 157.68)" fill="#ffffff" data-original="#ffffff" class=""></path><path d="M390.365 95.632 255.762 127.71v55.072l147.022-35.037z" style="" fill="#f7f7f7" data-original="#f7f7f7"></path><path d="m254.689 183.037-27.885 6.646 9.63-57.367 27.886-6.646z" style="" fill="#707789" data-original="#707789"></path><path d="M255.762 127.71v48.938l8.558-50.978z" style="" fill="#636978" data-original="#636978"></path><path d="m191.667 198.056-27.886 6.646 9.63-57.367 27.886-6.646zM128.644 213.076l-27.886 6.645 9.631-57.367 27.885-6.646z" style="" fill="#707789" data-original="#707789"></path><path d="m317.712 168.018-27.886 6.646 9.631-57.367 27.886-6.646zM380.735 152.999l-27.886 6.646 9.631-57.367 27.885-6.646z" style="" fill="#636978" data-original="#636978"></path></g></svg>